# xmcd
# 
# Track frame offsets:
#     150
#     45803
#     55670
#     78113
#     85697
#     109923
#     131872
# 
# Disc length: 1803
# 
# Revision: 0
# Processed by: cddbd v1.5.2PL0 Copyright (c) Steve Scherf et al.
# Submitted via: fre:ac v1.0.17
# 
DISCID=49070907
DTITLE=小小牛頓 - 新小小牛頓-第21期
DYEAR=0
DGENRE=
TTITLE0=一粒米都不能剩
TTITLE1=米飯點心真好吃
TTITLE2=彈塗魚爬上岸
TTITLE3=叮噹風鈴
TTITLE4=健忘的松鼠爺爺
TTITLE5=傑克的南瓜
TTITLE6=結尾
EXTD=
EXTT0=
EXTT1=
EXTT2=
EXTT3=
EXTT4=
EXTT5=
EXTT6=
PLAYORDER=
